<?xml version="1.0" encoding="utf-8"?>
<!-- Generator: Adobe Illustrator 27.2.0, SVG Export Plug-In . SVG Version: 6.00 Build 0)  -->
<svg version="1.1" id="Plan_1" xmlns="http://www.w3.org/2000/svg" xmlns:xlink="http://www.w3.org/1999/xlink" x="0px" y="0px"
	 viewBox="0 0 612 144" style="enable-background:new 0 0 612 144;" xml:space="preserve">
<style type="text/css">
	.st0{fill-rule:evenodd;clip-rule:evenodd;fill:#F2CB21;}
</style>
<path class="st0" d="M151.8,73.1c0,7.3,1.7,14.1,3.9,19.3c2.4,5.6,4.1,8.1,7.6,12.6c1.8,2.4,5,5.4,7.4,7.3c2.9,2.3,5.7,4,8.9,5.8
	c0.7,0.4,1.3,0.6,2,0.9c4.1,2,10.1,3.8,14.9,3.8c5.6,0,10.6-9,4.1-14.2c-3.6-2.9-15.3-1.6-25-13.9c-6.4-8-9.4-18.5-6.8-29.3
	c1.5-6.1,4.6-12.1,9-16.5c0.8-0.8,1.4-1.2,2.2-1.9c1.3-1.2,3.4-2.6,4.9-3.5c9.5-5.7,22.9-6.4,32.9-1c6.7,3.6,10.6,7.6,14.5,14
	c3.4,5.7,3.2,11.5,5.2,14c5.2,6.4,14.4,2.7,14.4-4.8c0-4.6-3.5-13.4-5.8-17.3c-3.7-6.3-7.9-11.2-13.6-15.5
	c-8.3-6.3-19.2-10.2-30.3-10.2C174.5,22.7,151.8,45.3,151.8,73.1z"/>
<path class="st0" d="M217,119.4c4.5,0,6.7-5.6,3.5-8.8c-3.2-3.2-8.6-0.8-8.7,3.6C211.8,116.9,214.2,119.4,217,119.4z"/>
<path class="st0" d="M229.8,105.2c0,6.7,7.9,7,9.8,2.6c1.9-4.3-2.3-8.5-6.5-6.9C231.4,101.4,229.8,103.1,229.8,105.2z"/>
<path class="st0" d="M238.6,87c0,8,10.1,6.5,10.1,1c0-1.7,0-2.6-1.6-4.2C243.9,80.7,238.6,83.2,238.6,87z"/>
<path class="st0" d="M572,122c-10.4,0.2-20.2,0.4-29.1-5c-5.8-3.5-10.2-8.1-13.4-13.9c-1.9-3.5-0.1-8.2,3.8-10.6
	c3.9-2.3,10.1-1.5,12.2,2.3c4.1,7.4,10.6,10.3,18.4,11.8c6.7,1.3,16.9-4.8,17.7-10.7c0.8-5.5-2.6-10.9-8.5-12.5
	c-7.1-2-14.4-3.4-21.6-5.2c-13.8-3.5-22.3-13.4-21.9-27.9c0.3-9.8,9.3-21.3,19.3-25.2c13-5.1,25.5-4.3,37.2,3.1
	c5.4,3.4,11,7.1,11,15c0,4.9-3,6.9-6.6,8.1c-3.6,1.2-7-0.1-9-3.4c-4.5-7.4-11.2-10-19.5-9.6c-5.4,0.3-11.2,3.6-13.5,9.3
	c-1.9,4.8,1.7,11.4,7.9,13.1c6.2,1.7,12.6,2.6,18.8,4.2c10.7,2.7,20.4,7.4,23.7,18.8c5,17.6-2.9,31.4-21.5,37.2
	C575.7,121.4,574.1,121.6,572,122z"/>
<path class="st0" d="M54.7,122c-10.4,0.2-20.2,0.4-29.1-5c-5.8-3.5-10.2-8.1-13.4-13.9c-1.9-3.5-0.1-8.2,3.8-10.6
	c3.9-2.3,10.1-1.5,12.2,2.3c4.1,7.4,10.6,10.3,18.4,11.8c6.7,1.3,16.9-4.8,17.7-10.7c0.8-5.5-2.6-10.9-8.5-12.5
	c-7.1-2-14.4-3.4-21.6-5.2c-13.8-3.5-22.3-13.4-21.9-27.9c0.3-9.8,9.3-21.3,19.3-25.2c13-5.1,25.5-4.3,37.2,3.1
	c5.4,3.4,11,7.1,11,15c0,4.9-3,6.9-6.6,8.1c-3.6,1.2-7-0.1-9-3.4c-4.5-7.4-11.2-10-19.5-9.6c-5.4,0.3-11.2,3.6-13.5,9.3
	c-1.9,4.8,1.7,11.4,7.9,13.1c6.2,1.7,12.6,2.6,18.8,4.2c10.7,2.7,20.4,7.4,23.7,18.8c5,17.6-2.9,31.4-21.5,37.2
	C58.4,121.4,56.8,121.6,54.7,122z"/>
<path class="st0" d="M329.5,95.5c0-21.2,0-41.9,0-62.6c0-6.8,3.6-10.8,9.6-10.8c6,0,9.7,4,9.7,10.8c0,26.5,0,52.9,0,79.4
	c0,5.9-3.9,9.8-9.5,9.8c-6.2,0-9.7-3.4-9.8-9.7C329.4,106.8,329.5,101.4,329.5,95.5z"/>
<path class="st0" d="M432.5,102.6c0-14.4,0-28.4,0-42.3c0-4.5,2-8.1,5.9-9.4c3.8-1.3,8.1-0.9,11.1,2.8c2,2.4,2.4,5.4,2.4,8.4
	c0.1,16.5,0.1,32.9,0,49.4c0,7.6-5.8,12.1-13.1,10.4c-4.4-1-5.8-4.8-6.2-8.6C432.2,109.9,432.5,106.5,432.5,102.6z"/>
</svg>
