<?xml version="1.0" encoding="UTF-8"?>
<svg id="Plan_1" data-name="Plan 1" xmlns="http://www.w3.org/2000/svg" viewBox="0 0 588.82 100.99">
  <defs>
    <style>
      .cls-1 {
        fill: #232323;
        fill-rule: evenodd;
      }
    </style>
  </defs>
  <path class="cls-1" d="m140.36,51.31c0,7.33,1.73,14.08,3.94,19.34,2.35,5.6,4.14,8.14,7.58,12.58,1.82,2.35,5.04,5.4,7.37,7.27,2.89,2.33,5.66,4.03,8.88,5.76.68.37,1.34.56,2,.88,4.06,1.97,10.08,3.84,14.88,3.84,5.62,0,10.65-8.98,4.12-14.2-3.6-2.88-15.26-1.62-24.97-13.91-6.35-8.04-9.38-18.49-6.8-29.3,1.46-6.13,4.59-12.06,8.99-16.45.8-.8,1.38-1.18,2.16-1.92,1.26-1.2,3.36-2.57,4.9-3.5,9.46-5.65,22.91-6.42,32.88-1.05,6.72,3.62,10.6,7.55,14.52,14.04,3.43,5.68,3.2,11.55,5.19,14.01,5.15,6.38,14.44,2.68,14.44-4.84,0-4.61-3.53-13.38-5.77-17.27-3.66-6.35-7.92-11.19-13.56-15.48-8.29-6.29-19.17-10.21-30.35-10.21-27.7,0-50.4,22.69-50.4,50.4Z"/>
  <path class="cls-1" d="m205.64,97.63c4.53,0,6.74-5.62,3.55-8.83-3.16-3.18-8.62-.83-8.74,3.58-.08,2.74,2.32,5.25,5.19,5.25Z"/>
  <path class="cls-1" d="m218.36,83.47c0,6.73,7.86,6.97,9.75,2.55,1.85-4.31-2.28-8.48-6.47-6.95-1.62.59-3.29,2.28-3.29,4.39Z"/>
  <path class="cls-1" d="m227.24,65.23c0,7.96,10.08,6.53,10.08.96,0-1.75,0-2.59-1.61-4.15-3.18-3.08-8.47-.59-8.47,3.19Z"/>
  <path class="cls-1" d="m560.6,100.23c-10.36.23-20.16.38-29.15-5.03-5.77-3.48-10.2-8.05-13.36-13.88-1.93-3.55-.09-8.23,3.83-10.56,3.89-2.31,10.08-1.51,12.15,2.26,4.07,7.38,10.62,10.33,18.36,11.8,6.66,1.27,16.85-4.8,17.74-10.73.81-5.45-2.58-10.88-8.49-12.54-7.13-2-14.43-3.39-21.61-5.22-13.82-3.53-22.32-13.39-21.92-27.93.27-9.8,9.28-21.26,19.26-25.16,13-5.07,25.49-4.34,37.18,3.1,5.36,3.41,11.04,7.07,10.99,15.01-.03,4.88-2.96,6.89-6.64,8.15-3.63,1.24-6.98-.12-8.97-3.39-4.52-7.39-11.16-9.97-19.49-9.57-5.39.26-11.23,3.6-13.51,9.29-1.94,4.84,1.74,11.36,7.9,13.09,6.18,1.74,12.59,2.64,18.82,4.23,10.65,2.71,20.42,7.43,23.65,18.76,5.02,17.61-2.89,31.43-21.46,37.25-1.56.49-3.21.72-5.29,1.07Z"/>
  <path class="cls-1" d="m43.28,100.23c-10.36.23-20.16.38-29.15-5.03-5.77-3.48-10.2-8.05-13.36-13.88-1.93-3.55-.09-8.23,3.83-10.56,3.89-2.31,10.08-1.51,12.15,2.26,4.07,7.38,10.62,10.33,18.36,11.8,6.66,1.27,16.85-4.8,17.74-10.73.81-5.45-2.58-10.88-8.49-12.54-7.13-2-14.43-3.39-21.61-5.22C8.93,52.81.43,42.94.83,28.41,1.1,18.61,10.11,7.15,20.09,3.25c13-5.07,25.49-4.34,37.18,3.1,5.36,3.41,11.04,7.07,10.99,15.01-.03,4.88-2.96,6.89-6.64,8.15-3.63,1.24-6.98-.12-8.97-3.39-4.52-7.39-11.16-9.97-19.49-9.57-5.39.26-11.23,3.6-13.52,9.29-1.94,4.84,1.74,11.36,7.9,13.09,6.18,1.74,12.59,2.64,18.82,4.23,10.65,2.71,20.42,7.43,23.65,18.76,5.02,17.61-2.89,31.43-21.46,37.25-1.56.49-3.21.72-5.29,1.07Z"/>
  <path class="cls-1" d="m318.06,73.72c0-21.21,0-41.9,0-62.6,0-6.79,3.61-10.82,9.65-10.84,5.99-.02,9.7,3.98,9.71,10.78.05,26.46.04,52.93,0,79.39,0,5.92-3.85,9.77-9.53,9.79-6.21.01-9.75-3.44-9.82-9.72-.06-5.43-.01-10.86-.01-16.8Z"/>
  <path class="cls-1" d="m421.08,80.84c0-14.43.05-28.36-.03-42.28-.02-4.48,2.04-8.06,5.89-9.38,3.77-1.29,8.09-.88,11.05,2.8,1.96,2.44,2.43,5.4,2.44,8.38.05,16.47.09,32.95,0,49.42-.05,7.62-5.75,12.11-13.09,10.4-4.44-1.04-5.75-4.77-6.18-8.65-.37-3.35-.08-6.78-.08-10.69Z"/>
</svg>